<svg width="176" height="32" viewBox="0 0 176 32" fill="none" xmlns="http://www.w3.org/2000/svg">
<!-- Icon background -->
<path d="M0 8.42105C0 3.77023 3.77023 0 8.42105 0H23.5789C28.2298 0 32 3.77023 32 8.42105V23.5789C32 28.2298 28.2298 32 23.5789 32H8.42105C3.77023 32 0 28.2298 0 23.5789V8.42105Z" fill="#3C50E0"/>

<!-- Icon bars -->
<g filter="url(#filter0_d_506_10589)">
<path d="M8.42139 8.42127C8.42139 7.49111 9.17543 6.73706 10.1056 6.73706V6.73706C11.0358 6.73706 11.7898 7.49111 11.7898 8.42127V23.5792C11.7898 24.5093 11.0358 25.2634 10.1056 25.2634V25.2634C9.17543 25.2634 8.42139 24.5093 8.42139 23.5792V8.42127Z" fill="white"/>
</g>
<g opacity="0.9" filter="url(#filter1_d_506_10589)">
<path d="M14.7368 15.1576C14.7368 14.2274 15.4909 13.4734 16.421 13.4734V13.4734C17.3512 13.4734 18.1052 14.2274 18.1052 15.1576V23.5786C18.1052 24.5088 17.3512 25.2629 16.421 25.2629V25.2629C15.4909 25.2629 14.7368 24.5088 14.7368 23.5786V15.1576Z" fill="white"/>
</g>
<g opacity="0.7" filter="url(#filter2_d_506_10589)">
<path d="M21.0522 10.9469C21.0522 10.0167 21.8063 9.2627 22.7365 9.2627V9.2627C23.6666 9.2627 24.4207 10.0167 24.4207 10.9469V23.5785C24.4207 24.5086 23.6666 25.2627 22.7365 25.2627V25.2627C21.8063 25.2627 21.0522 24.5086 21.0522 23.5785V10.9469Z" fill="white"/>
</g>

<!-- MockyLab text -->
<g transform="translate(44, 8) scale(0.20)">
  <path d="M63.89,73.59c-.32.75-.85,1.49-1.39,1.92-.75.64-1.6,1.07-2.77,1.17-2.03.64-3.84.32-5.44-.43-3.95-2.45-3.41-7.47-3.52-11.2v-8.32l-.11-16.32c0-4.59,0-4.16-.11-9.17,0-.43.11-.75-.11-5.44-11.09,18.45-13.55,21.33-17.6,21.65-2.35.21-4.69-2.45-5.97-4.05-3.41-4.27-7.79-10.03-12.37-18.56-.11.53-.21,45.33-.64,45.44,0,4.8-4.8,8.96-10.67,5.87-1.81-1.17-2.77-3.63-2.99-5.44-.11-1.92-.21-3.84-.21-5.76l.11-8.32.11-16.43v-14.29C.21,19.73.43,13.65.85,7.68c0-1.49.43-2.88.96-4.16.53-1.07,1.17-1.92,2.24-2.56s2.24-.96,3.41-.96c.96,0,1.92.11,2.77.21,2.88.53,4.8,4.16,6.61,6.08,2.24,2.56,5.33,7.79,7.04,10.56,3.73,5.97,6.51,11.09,9.07,14.61.75-.85,2.56-3.52,3.09-4.59,2.99-4.59,5.44-8.32,10.13-16.11C48.21,7.47,52.69.11,57.28,0c1.07,0,1.92.11,2.77.21.96.11,1.71.53,2.45,1.17.53.53.96,1.07,1.28,1.81.21.75.43,1.6.53,2.35.11.96.21,1.81.21,2.67,0,7.89.21,15.79.21,23.68,0,9.6.11,20.27.11,29.87,0,2.03.21,4.37.11,6.61-.11,1.71-.43,3.63-1.07,5.23Z" fill="white"/>
  <path d="M116.25,31.57c3.2,3.2,5.76,8.32,6.93,12.69,2.35,7.79.32,16.11-3.84,22.93-1.92,3.09-5.01,5.76-8.32,7.25-4.27,1.92-9.49,2.77-14.19,2.35-16.96-.96-26.45-16.42-22.19-32.42,2.24-8.43,6.83-13.65,12.69-16.53,9.49-4.69,20.91-3.95,28.9,3.73ZM89.27,59.62c1.39,2.13,5.65,3.73,9.6,3.95,9.17.53,14.08-12.48,9.17-20.37-3.52-5.76-13.01-5.23-17.49-1.07-4.16,4.05-4.8,12.48-1.28,17.49Z" fill="white"/>
  <path d="M172.57,41.38c-1.28,2.56-3.73,3.41-6.61,2.77-2.67-.64-3.52-3.09-7.68-3.73-2.13-.32-4.91,0-6.83.85-6.19,3.2-7.68,13.65-3.09,18.88,1.71,2.03,4.8,3.41,7.36,3.63,2.45.32,4.91-.11,7.15-.85,1.71-.75,4.05-2.35,5.97-2.56,5.01-.11,5.87,6.19,3.41,9.28-1.71,2.13-5.33,4.27-8.11,5.12-3.41,1.07-8,1.17-11.63.75-1.71-.21-3.63-.75-5.33-1.28-12.59-4.48-16.75-17.6-13.44-29.22,3.09-11.2,9.49-14.61,19.09-16.75,5.01-.96,10.99.11,15.36,2.77,1.6.85,3.2,2.35,4.27,3.95,1.07,1.92,1.17,4.37.11,6.4Z" fill="white"/>
  <path d="M215.02,63.25c2.56,2.56,4.91,5.97,2.88,9.81-2.24,4.05-5.87,2.77-9.39.21-3.31-2.45-6.51-6.19-8.32-7.89-.53-.53-.96-.96-1.17-1.28-.21-.21-.53-.43-.85-.75-.96-.96-2.13-2.03-3.31-3.09v4.16c0,.64,0,1.17.11,1.71,0,.64,0,1.07-.11,1.6-.21.75-.32,1.49-.32,2.24-.11.64-.21,1.28-.53,2.03-.11.32-.21.43-.21.64-.11.21-.21.32-.32.64-.43.85-1.07,1.49-1.71,2.03-1.49.85-3.2.96-5.01.64-1.07-.21-1.81-.53-2.45-1.17-.64-.43-1.07-1.07-1.28-1.81-.32-.75-.53-1.49-.75-2.24-.21-.64-.21-1.39-.21-1.81V8.21c0-.85,0-1.71.11-2.56.11-.85.43-1.6.64-2.35.32-.75.64-1.28,1.07-1.71.75-.75,1.49-1.07,2.24-1.28.75-.11,1.71-.21,2.56-.21,1.07,0,2.03.32,2.99.85.96.64,1.6,1.39,2.03,2.45.53,1.28.85,2.56.85,3.95.11,1.39.32,5.12.32,6.51v.43c.11,4.69.11,8.75.11,13.65-.11,4.91-.11,9.39-.11,13.76v1.17c1.17-1.07,2.35-2.13,3.31-3.2.43-.32.64-.53.85-.75l1.17-1.17c1.81-1.81,5.01-5.55,8.32-8,3.52-2.56,7.15-3.73,9.39.21,2.03,3.84-.32,7.25-2.88,10.03-9.49,9.71-2.45,1.81-11.73,11.52,9.28,9.81,2.24,1.92,11.73,11.73Z" fill="white"/>
  <path d="M277.09,31.68c0,1.49-.21,2.88-.85,4.27-.53,1.39-2.13,5.01-2.77,6.29l-.21.53c-1.92,4.37-3.73,8.32-5.97,13.01-2.24,4.59-4.37,8.85-6.29,13.01-.53,1.07-.96,2.24-1.6,3.31l-5.12,10.99c-1.81,3.73-3.41,7.25-5.33,10.77-.43.75-.75,1.28-1.07,2.03-.96,1.71-3.09,3.73-5.23,3.84-1.81.11-3.52-.43-5.01-1.71-.96-.53-1.6-1.28-2.03-2.13-.32-.75-.43-1.6-.43-2.45.11-.85.21-1.6.32-2.35.32-.75.43-1.49.64-1.92.21-.53.32-.85.53-.85l7.79-16.85c-.75-1.6-1.49-3.31-2.03-4.59-3.73-8.96-8.21-19.84-12.8-28.26-1.6-2.88-3.41-6.51-1.28-9.81,2.35-4.37,8-3.31,10.35-.53,2.35,2.56,3.63,5.87,4.91,9.07,2.67,5.65,5.65,12.16,8.43,18.13l5.55-11.73c1.07-2.24,2.03-4.37,2.99-6.4,1.17-2.45,2.13-5.12,3.52-7.25.21-.53.64-.96.85-1.49.64-.85,1.07-1.39,1.71-2.03.64-.53,1.17-.96,1.81-1.07.96-.32,1.92-.32,2.77-.21.75.21,1.6.53,2.56.96,1.07.43,1.92,1.28,2.45,2.24.64.96.96,2.03.85,3.2Z" fill="white"/>
  <path d="M335.22,71.14c0,1.07-.53,2.13-1.17,2.99-.75.96-1.6,1.49-2.77,1.92-1.6.53-3.2.85-4.8.85-1.6.11-3.31.11-5.01.32h-.43c-5.55.11-11.09.11-16.96,0-5.55-.21-15.36,1.49-17.6-4.59-.21-.64-.43-1.39-.43-2.03-.53-4.8-.21-9.49-.21-14.08l.21-15.47v-14.29c0-5.12.11-8.64.21-13.44v-.53c.11-1.39.21-2.88.21-4.27.11-1.49.43-2.88,1.17-4.16.43-1.07,1.17-1.92,2.24-2.56.96-.64,2.13-.96,3.31-.96.96,0,1.92.11,2.77.21.85.11,1.6.64,2.45,1.28.43.43.85,1.07,1.17,1.81.21.64.43,1.49.53,2.35.11.96.32,1.81.32,2.67-.21.85-.21,1.71-.21,2.45v1.92l-.43,50.24,21.12.21h5.01c.85,0,1.92.11,2.88.21,1.07.11,1.92.32,2.77.53.85.21,1.49.64,1.92,1.07.85.75,1.28,1.39,1.49,2.13.21.75.21,2.35.21,3.2Z" fill="white"/>
  <path d="M376.92,34.45c3.73,3.73,5.55,8.11,6.4,13.44,1.07,7.25,5.65,12.48,7.25,19.41.75,3.31-.43,6.93-4.05,7.57-4.37.85-7.47-3.84-9.39-6.93-3.31,4.27-6.93,6.51-12.27,7.25-4.59.53-8.43.32-13.12-.96-12.16-3.2-15.68-16.53-12.59-28.16,2.03-7.68,6.19-12.37,11.41-14.93,8.64-4.37,19.09-3.73,26.34,3.31ZM351.96,59.84c1.39,2.03,5.23,3.52,8.96,3.73,8.53.53,13.12-11.63,8.53-18.99-3.31-5.44-12.16-4.91-16.21-.96-4.05,3.84-4.48,11.63-1.28,16.21Z" fill="white"/>
  <path d="M408.28,1.17c5.12,1.39,4.37,6.19,4.48,10.45v14.72c-.11,2.13,0,4.48,0,4.48,0,0,4.91,0,6.93-.11,15.68-.11,22.08,9.6,21.86,22.93-.21,15.79-10.13,22.72-25.38,22.72-17.6,0-16.53,1.71-16.53-21.44,0-10.99.11-21.87,0-32.75,0-2.99-.32-5.65,0-13.54.32-5.12,3.31-8.96,8.64-7.47ZM427.69,61.22c3.2-4.37,3.41-12.37-1.07-16.11-4.05-3.41-7.47-2.77-13.65-2.56v12.8l-.21,8.85s3.73.43,6.83.21c4.05-.21,6.51-1.17,8.11-3.2Z" fill="white"/>
</g>

<!-- Filters -->
<defs>
<filter id="filter0_d_506_10589" x="7.42139" y="6.23706" width="5.36865" height="20.5264" filterUnits="userSpaceOnUse" color-interpolation-filters="sRGB">
<feFlood flood-opacity="0" result="BackgroundImageFix"/>
<feColorMatrix in="SourceAlpha" type="matrix" values="0 0 0 0 0 0 0 0 0 0 0 0 0 0 0 0 0 0 127 0" result="hardAlpha"/>
<feOffset dy="0.5"/>
<feGaussianBlur stdDeviation="0.5"/>
<feComposite in2="hardAlpha" operator="out"/>
<feColorMatrix type="matrix" values="0 0 0 0 0 0 0 0 0 0 0 0 0 0 0 0 0 0 0.12 0"/>
<feBlend mode="normal" in2="BackgroundImageFix" result="effect1_dropShadow_506_10589"/>
<feBlend mode="normal" in="SourceGraphic" in2="effect1_dropShadow_506_10589" result="shape"/>
</filter>
<filter id="filter1_d_506_10589" x="13.7368" y="12.9734" width="5.36865" height="13.7896" filterUnits="userSpaceOnUse" color-interpolation-filters="sRGB">
<feFlood flood-opacity="0" result="BackgroundImageFix"/>
<feColorMatrix in="SourceAlpha" type="matrix" values="0 0 0 0 0 0 0 0 0 0 0 0 0 0 0 0 0 0 127 0" result="hardAlpha"/>
<feOffset dy="0.5"/>
<feGaussianBlur stdDeviation="0.5"/>
<feComposite in2="hardAlpha" operator="out"/>
<feColorMatrix type="matrix" values="0 0 0 0 0 0 0 0 0 0 0 0 0 0 0 0 0 0 0.12 0"/>
<feBlend mode="normal" in2="BackgroundImageFix" result="effect1_dropShadow_506_10589"/>
<feBlend mode="normal" in="SourceGraphic" in2="effect1_dropShadow_506_10589" result="shape"/>
</filter>
<filter id="filter2_d_506_10589" x="20.0522" y="8.7627" width="5.36865" height="18" filterUnits="userSpaceOnUse" color-interpolation-filters="sRGB">
<feFlood flood-opacity="0" result="BackgroundImageFix"/>
<feColorMatrix in="SourceAlpha" type="matrix" values="0 0 0 0 0 0 0 0 0 0 0 0 0 0 0 0 0 0 127 0" result="hardAlpha"/>
<feOffset dy="0.5"/>
<feGaussianBlur stdDeviation="0.5"/>
<feComposite in2="hardAlpha" operator="out"/>
<feColorMatrix type="matrix" values="0 0 0 0 0 0 0 0 0 0 0 0 0 0 0 0 0 0 0.12 0"/>
<feBlend mode="normal" in2="BackgroundImageFix" result="effect1_dropShadow_506_10589"/>
<feBlend mode="normal" in="SourceGraphic" in2="effect1_dropShadow_506_10589" result="shape"/>
</filter>
</defs>
</svg>
